<?xml version="1.0" encoding="UTF-8" standalone="no"?>
<!-- Created with Inkscape (http://www.inkscape.org/) -->

<svg
   width="210mm"
   height="297mm"
   viewBox="0 0 210 297"
   version="1.1"
   id="svg1"
   xml:space="preserve"
   inkscape:export-filename="bitmap.svg"
   inkscape:export-xdpi="15.39394"
   inkscape:export-ydpi="15.39394"
   xmlns:inkscape="http://www.inkscape.org/namespaces/inkscape"
   xmlns:sodipodi="http://sodipodi.sourceforge.net/DTD/sodipodi-0.dtd"
   xmlns="http://www.w3.org/2000/svg"
   xmlns:svg="http://www.w3.org/2000/svg"><sodipodi:namedview
     id="namedview1"
     pagecolor="#ffffff"
     bordercolor="#000000"
     borderopacity="0.25"
     inkscape:showpageshadow="2"
     inkscape:pageopacity="0.0"
     inkscape:pagecheckerboard="0"
     inkscape:deskcolor="#d1d1d1"
     inkscape:document-units="mm"
     inkscape:export-bgcolor="#ffffff0f" /><defs
     id="defs1" /><g
     inkscape:label="Camada 1"
     inkscape:groupmode="layer"
     id="layer1"><g
       transform="matrix(0.15176978,0,0,-0.1456076,43.665958,252.16585)"
       fill="#000000"
       stroke="none"
       id="g5"><path
         d="m 362,823 c -88,-43 -83,-179 8,-219 l 40,-18 V 443 c 0,-89 4,-143 10,-143 6,0 10,54 10,143 v 143 l 40,18 c 92,40 95,177 6,220 -43,20 -72,20 -114,-1 z m 108,-28 c 41,-21 56,-73 35,-118 -35,-75 -135,-75 -170,0 -41,85 48,163 135,118 z"
         id="path1" /><path
         d="M 112,484 0,389 V 195 C 0,62 3,0 11,0 c 9,0 50,32 210,167 15,12 40,2 201,-78 l 185,-92 117,97 116,98 v 194 c 0,135 -3,194 -11,194 -6,0 -60,-41 -119,-90 l -109,-91 -72,36 c -48,25 -75,33 -82,26 -6,-6 18,-23 75,-52 l 86,-42 88,75 c 49,41 95,78 102,82 9,6 12,-28 12,-156 V 205 L 707,119 604,33 430,121 c -96,48 -182,88 -190,88 -8,0 -58,-35 -110,-79 L 35,51 32,213 29,375 67,408 c 21,19 68,58 105,88 l 66,55 72,-36 c 49,-24 76,-33 83,-26 6,6 -17,23 -72,50 -44,23 -84,41 -88,41 -5,-1 -59,-44 -121,-96 z"
         id="path2" /><path
         d="m 226,503 c -3,-3 -6,-60 -6,-125 0,-98 3,-118 15,-118 12,0 15,20 15,119 0,109 -6,142 -24,124 z"
         id="path3" /><path
         d="m 370,302 c 0,-25 20,-42 50,-42 14,0 31,5 38,12 17,17 15,48 -3,48 -8,0 -15,-7 -15,-15 0,-8 -9,-15 -20,-15 -11,0 -20,7 -20,15 0,8 -7,15 -15,15 -8,0 -15,-8 -15,-18 z"
         id="path4" /><path
         d="m 592,200 c 4,-161 22,-163 26,-2 2,105 0,122 -13,122 -13,0 -15,-17 -13,-120 z"
         id="path5" /></g><path
       style="fill:#000000;stroke-width:1.44468"
       d="m 403.8182,780.49068 c -0.56174,-2.58237 -1.44816,-37.47866 -1.96983,-77.5473 l -0.94848,-72.85208 -16.58444,-7.3279 c -20.96284,-9.26251 -32.12788,-18.98076 -39.73552,-34.5865 -16.69559,-34.24808 -3.6938,-71.92052 30.26029,-87.67863 18.58297,-8.62436 29.8265,-10.22569 44.89821,-6.39453 22.72883,5.77758 39.86637,19.0914 48.77059,37.88893 4.4077,9.30503 4.62508,10.58225 4.62508,27.17507 0,17.20453 -0.0642,17.54108 -5.41208,28.36175 -8.07547,16.3396 -18.92504,25.86667 -40.1249,35.23391 l -16.58444,7.3279 -0.94849,72.85208 c -0.9022,69.29749 -1.54879,82.24253 -4.10791,82.24253 -0.61421,0 -1.57634,-2.11285 -2.13808,-4.69523 z m 25.36118,-173.44197 c 10.79201,-5.17692 20.46558,-15.03568 26.21807,-26.72001 4.28901,-8.71175 4.73449,-10.84292 4.73449,-22.64966 0,-10.26613 -0.65553,-14.4508 -3.08776,-19.71098 -9.22175,-19.9439 -31.39502,-31.5281 -56.98988,-29.77379 -19.35005,1.32628 -36.19195,11.86326 -44.31553,27.7256 -5.31738,10.38287 -6.15501,27.23037 -1.9129,38.4747 6.15844,16.32385 18.46909,29.03761 33.51018,34.60749 11.4853,4.25313 30.78303,3.35226 41.84333,-1.95335 z"
       id="path6"
       transform="scale(0.26458333)" /><path
       style="fill:#ffff00;stroke-width:1.44468"
       d="m 403.79839,781.21302 c -0.57753,-2.18508 -1.46595,-37.07737 -1.97428,-77.53843 l -0.92422,-73.56554 -16.47973,-7.23743 C 363.5555,613.70847 352.20968,603.828 344.57993,588.1769 c -16.69559,-34.24808 -3.6938,-71.92052 30.26029,-87.67863 18.58297,-8.62436 29.8265,-10.22569 44.89821,-6.39453 22.72883,5.77758 39.86637,19.0914 48.77059,37.88893 4.4077,9.30503 4.62508,10.58225 4.62508,27.17507 0,17.20453 -0.0642,17.54108 -5.41208,28.36175 -8.09799,16.38516 -19.12748,26.07468 -40.22961,35.34213 l -16.47973,7.23743 -0.92423,73.56554 c -0.87258,69.45443 -1.48379,81.51132 -4.13217,81.51132 -0.60931,0 -1.58037,-1.7878 -2.15789,-3.97289 z m 18.00883,-171.67804 c 14.72462,-4.37274 27.49657,-15.74637 34.45856,-30.6859 3.23218,-6.93584 3.82422,-10.20165 3.84344,-21.20095 0.0198,-11.32044 -0.4967,-14.05987 -3.99318,-21.17986 -9.10365,-18.53799 -30.76836,-29.81569 -54.37105,-28.30318 -20.54984,1.31687 -36.60242,10.91286 -45.68455,27.30953 -3.90074,7.04229 -4.27982,8.9423 -4.27982,21.45117 0,11.84249 0.52704,14.84878 3.84345,21.92329 4.30769,9.18911 13.73171,20.14653 21.61765,25.13512 11.95775,7.56437 30.15344,9.83071 44.5655,5.55078 z"
       id="path7"
       transform="scale(0.26458333)" /><path
       style="fill:#ffff00;stroke-width:1.44468"
       d="m 297.01036,807.49987 c -3.72146,-3.72147 -4.46328,-14.67464 -4.3976,-64.93215 0.0717,-54.86278 0.8431,-64.95729 5.13969,-67.25675 2.45666,-1.31477 3.11472,-0.82628 5.01557,3.7231 1.20336,2.88003 2.88393,12.82738 3.73462,22.10522 1.89338,20.64982 0.77336,94.06092 -1.5501,101.60026 -1.86033,6.03654 -4.86503,7.83747 -7.94218,4.76032 z"
       id="path8"
       transform="scale(0.26458333)" /><path
       style="fill:#ffff00;stroke-width:1.44468"
       d="M 497.69373,946.40701 C 328.15485,865.28289 313.65286,858.8648 299.88739,858.8648 c -6.27636,0 -7.7293,1.00221 -46.94453,32.38139 -61.77434,49.43049 -79.35598,62.22941 -81.93739,59.64801 -3.07359,-3.07358 -3.82508,-22.11624 -4.43508,-112.38409 l -0.66963,-99.08998 40.9313,-33.24479 c 40.96917,-33.27554 84.37126,-67.13903 89.71843,-70.00075 3.6023,-1.92789 11.43333,1.25978 52.34076,21.30567 38.2478,18.74258 50.47435,28.08176 34.2478,26.15996 -8.97452,-1.0629 -23.70101,-6.97526 -54.92233,-22.05012 -13.90212,-6.71249 -25.80103,-12.20452 -26.44202,-12.20452 -0.64098,0 -12.40565,8.96578 -26.1437,19.92394 -13.73805,10.95817 -29.85409,23.75525 -35.81341,28.43796 -5.95932,4.68271 -21.80093,17.61347 -35.20358,28.73503 l -24.36845,20.22101 0.87478,16.713 c 0.48113,9.19214 1.29385,46.61796 1.80604,83.16847 0.51219,36.55051 1.3341,69.33443 1.82646,72.85316 l 0.89521,6.39767 32.92643,-26.31564 c 57.68161,-46.10059 80.5328,-61.96083 86.5596,-60.0781 12.93517,4.04085 88.13426,38.79886 162.20113,74.97148 29.71148,14.51043 44.02769,20.79478 45.5719,20.00459 1.23834,-0.63365 28.10999,-21.89595 59.71477,-47.24952 l 57.46324,-46.09742 -0.50773,-84.64651 c -0.51044,-85.0969 -0.96962,-92.59227 -5.67221,-92.59227 -2.98352,0 -51.0745,37.40833 -99.48479,77.38581 l -10.83513,8.94771 -33.95008,-16.18637 c -18.67254,-8.9025 -37.52567,-18.31131 -41.89584,-20.90846 -9.24412,-5.4937 -16.11462,-11.59185 -15.03256,-13.34266 2.41289,-3.90414 16.83636,1.19849 55.91855,19.78247 l 31.49555,14.97646 36.40461,-29.25087 c 55.41595,-44.52636 92.37432,-71.87467 94.39728,-69.85171 3.05653,3.05654 3.81027,22.22996 4.41963,112.42687 l 0.66985,99.14843 -37.31981,30.22351 c -62.4014,50.53588 -94.31814,75.58923 -96.20276,75.51528 -0.98658,-0.0387 -7.64476,-2.87006 -14.79595,-6.29189 z"
       id="path9"
       transform="scale(0.26458333)" /><path
       style="fill:#ffff00;stroke-width:1.44468"
       d="m 510.98284,907.26173 c -3.91002,-11.94645 -7.42219,-110.3091 -4.35463,-121.95686 1.74218,-6.61516 5.33397,-8.86138 8.7358,-5.46315 2.27455,2.27214 2.60812,6.39642 3.03605,37.5373 0.51729,37.64458 -1.51698,76.04308 -4.57574,86.37095 -1.52173,5.13809 -2.08239,5.83101 -2.84148,3.51176 z"
       id="path10"
       transform="scale(0.26458333)" /><path
       style="fill:#f8b500;fill-opacity:1;stroke-width:1.44468"
       d="m 398.01052,808.46326 c -12.17382,-3.15639 -19.48778,-10.85575 -19.49784,-20.52525 -0.0116,-11.12298 11.59193,-13.39123 15.09985,-2.95171 2.08833,6.21484 5.7811,8.86771 12.34375,8.86771 6.56266,0 10.25542,-2.65287 12.34375,-8.86771 2.14393,-6.38029 7.95116,-8.71632 12.17214,-4.89638 6.57957,5.95443 1.63387,20.60545 -8.64343,25.60505 -6.05661,2.94636 -17.84642,4.31664 -23.81822,2.76829 z"
       id="path11"
       transform="scale(0.26458333)" /><path
       style="fill:#f8b500;fill-opacity:1;stroke-width:1.02155"
       d="m 508.72993,950.82644 c -0.84277,-0.32033 -26.58573,-12.5199 -57.20658,-27.11018 -119.9943,-57.17506 -138.30795,-65.1068 -150.3256,-65.1068 -8.25015,0 -7.50834,-0.50194 -55.00515,37.21863 -39.33917,31.24201 -63.79511,49.78479 -69.49801,52.69419 -5.24188,2.67421 -6.16058,1.99719 -7.26747,-5.35561 -0.93644,-6.22057 -2.82284,-117.62437 -2.85888,-168.83476 l -0.0244,-34.73257 14.49633,-11.74778 c 55.72648,-45.16055 101.70479,-81.45593 112.46647,-88.78129 l 4.91982,-3.34887 5.1986,1.70037 c 6.67015,2.1817 31.33783,13.668 52.89455,24.62991 18.39821,9.35577 32.68948,18.06359 32.68948,19.91806 0,2.23903 -11.48109,0.34042 -21.96324,-3.63204 -5.61851,-2.12927 -22.29712,-9.558 -37.06358,-16.50829 -14.76644,-6.95029 -27.48648,-12.63689 -28.26674,-12.63689 -2.2415,0 -63.19856,48.07675 -104.12114,82.12021 l -18.26264,15.19268 0.66534,9.3163 c 0.36593,5.12395 1.33729,43.67107 2.15856,85.66025 1.40924,72.05028 1.91841,84.56024 3.44095,84.54186 0.34958,-0.004 13.04738,-9.922 28.21734,-22.03951 57.67084,-46.06652 82.58355,-63.76268 89.76528,-63.76268 5.15658,0 72.42717,30.60972 149.27649,67.92435 28.7777,13.97318 51.44627,24.50388 55.89999,25.96839 4.60689,1.51486 -3.10992,7.14097 67.56979,-49.2633 l 54.00466,-43.09712 -0.6238,-80.70214 c -0.58395,-75.54814 -1.2939,-94.54005 -3.6211,-96.86723 -0.52219,-0.5222 -2.01742,-0.67219 -3.32271,-0.33332 -4.04482,1.05008 -39.52533,28.42357 -85.62977,66.06401 -12.08005,9.86236 -22.48974,18.25666 -23.13266,18.65401 -1.12749,0.69683 -57.50928,-25.80668 -72.63279,-34.14265 -9.2886,-5.11981 -17.62567,-11.6514 -17.62567,-13.80865 0,-1.36616 0.78919,-1.53924 4.62262,-1.01381 6.28376,0.86128 20.34254,6.71238 53.46817,22.25281 15.99296,7.50288 28.48325,12.7935 29.18925,12.36394 0.67873,-0.41297 17.05973,-13.44786 36.40222,-28.96641 39.3146,-31.54227 80.01206,-62.463 87.7716,-66.68627 l 5.11563,-2.78428 1.06701,2.80642 c 1.69794,4.46593 2.83922,48.05757 3.43351,131.14457 l 0.55167,77.12673 -21.64247,17.36628 C 509.11363,956.35123 513.8659,952.77854 508.72993,950.82644 Z"
       id="path12"
       transform="scale(0.26458333)" /><path
       style="fill:#f8b500;fill-opacity:1;stroke-width:1.02155"
       d="m 306.62511,726.83002 c 0,-1.40463 0.23187,-1.97925 0.51526,-1.27694 0.28338,0.70232 0.28338,1.85155 0,2.55387 -0.28339,0.70231 -0.51526,0.12769 -0.51526,-1.27693 z"
       id="path13"
       transform="scale(0.26458333)" /><path
       style="fill:#f8b500;fill-opacity:1;stroke-width:1.02155"
       d="m 296.83575,806.26013 c -2.71031,-4.13644 -3.61725,-20.15837 -3.59993,-63.59615 0.0167,-41.90648 0.90694,-60.93383 3.03713,-64.91413 1.8469,-3.45097 4.41117,-1.96574 6.25945,3.62548 3.08521,9.33306 3.92626,22.7978 3.89209,62.3102 -0.0446,51.58587 -1.22146,63.68692 -6.28862,64.66278 -0.94349,0.18169 -2.42855,-0.75798 -3.30012,-2.08818 z"
       id="path14"
       transform="scale(0.26458333)" /><path
       style="fill:#f8b500;fill-opacity:1;stroke-width:1.02155"
       d="m 404.98061,782.91408 c -1.03804,-1.67959 -2.19504,-41.15959 -3.09134,-105.48536 l -0.66699,-47.86898 -4.72968,-2.0141 c -13.5007,-5.74918 -28.04615,-13.48355 -33.41957,-17.77047 -15.60785,-12.45194 -24.94129,-31.76652 -24.94129,-51.61338 0,-10.79445 1.4837,-17.22839 6.29822,-27.31181 12.21633,-25.58559 46.97083,-42.81563 73.6849,-36.53036 21.86557,5.14453 40.37972,19.01469 49.19481,36.85505 4.72889,9.57054 6.08053,18.03914 5.37269,33.66243 -0.54185,11.95962 -0.63749,12.35321 -5.27046,21.68585 -8.47019,17.06235 -18.62005,25.84124 -42.44874,36.71509 l -13.79087,6.29325 -0.62782,16.21527 c -0.3453,8.91841 -0.70963,30.00615 -0.80962,46.86166 -0.24893,41.95953 -1.73883,87.83192 -2.92136,89.94498 -0.78998,1.41162 -1.1408,1.4807 -1.83288,0.36088 z m 10.78863,-171.54809 c 10.04907,-1.56703 20.70613,-7.22088 28.66607,-15.20811 12.5628,-12.60588 16.83229,-23.74475 16.08192,-41.95684 -0.39346,-9.54948 -0.80837,-11.48268 -3.74455,-17.4469 -6.0093,-12.20665 -16.77375,-21.17404 -31.29875,-26.07363 -6.78054,-2.28722 -9.99914,-2.76184 -18.8986,-2.78681 -12.2957,-0.0345 -20.22162,1.70925 -29.85435,6.56813 -8.03515,4.05303 -17.637,13.71779 -21.73373,21.87612 -2.98522,5.94486 -3.06464,6.48826 -3.06464,20.97095 v 14.86795 l 3.79343,7.67293 c 4.23503,8.56616 13.58882,19.4565 20.83219,24.25431 10.1845,6.74593 24.97191,9.48387 39.22101,7.2619 z"
       id="path15"
       transform="scale(0.26458333)" /><path
       style="fill:#f8b500;fill-opacity:1;stroke-width:1.02155"
       d="m 511.43723,905.84882 c -2.26679,-3.66773 -4.97877,-50.97284 -5.13865,-89.63353 -0.11647,-28.16433 -0.0191,-29.80093 1.97589,-33.1969 2.64613,-4.50447 4.93499,-4.97641 7.2202,-1.48873 3.75133,5.72525 2.8894,93.12551 -1.14636,116.24295 -1.4439,8.27082 -1.94007,9.64735 -2.91108,8.07621 z"
       id="path16"
       transform="scale(0.26458333)" /></g></svg>
