<?xml version="1.0" standalone="no"?>
<!DOCTYPE svg PUBLIC "-//W3C//DTD SVG 20010904//EN"
 "http://www.w3.org/TR/2001/REC-SVG-20010904/DTD/svg10.dtd">
<svg version="1.0" xmlns="http://www.w3.org/2000/svg"
 width="84.000000pt" height="84.000000pt" viewBox="0 0 84.000000 84.000000"
 preserveAspectRatio="xMidYMid meet">

<g transform="translate(0.000000,84.000000) scale(0.100000,-0.100000)"
fill="#000000" stroke="none">
<path d="M362 823 c-88 -43 -83 -179 8 -219 l40 -18 0 -143 c0 -89 4 -143 10
-143 6 0 10 54 10 143 l0 143 40 18 c92 40 95 177 6 220 -43 20 -72 20 -114
-1z m108 -28 c41 -21 56 -73 35 -118 -35 -75 -135 -75 -170 0 -41 85 48 163
135 118z"/>
<path d="M112 484 l-112 -95 0 -194 c0 -133 3 -195 11 -195 9 0 50 32 210 167
15 12 40 2 201 -78 l185 -92 117 97 116 98 0 194 c0 135 -3 194 -11 194 -6 0
-60 -41 -119 -90 l-109 -91 -72 36 c-48 25 -75 33 -82 26 -6 -6 18 -23 75 -52
l86 -42 88 75 c49 41 95 78 102 82 9 6 12 -28 12 -156 l0 -163 -103 -86 -103
-86 -174 88 c-96 48 -182 88 -190 88 -8 0 -58 -35 -110 -79 l-95 -79 -3 162
-3 162 38 33 c21 19 68 58 105 88 l66 55 72 -36 c49 -24 76 -33 83 -26 6 6
-17 23 -72 50 -44 23 -84 41 -88 41 -5 -1 -59 -44 -121 -96z"/>
<path d="M226 503 c-3 -3 -6 -60 -6 -125 0 -98 3 -118 15 -118 12 0 15 20 15
119 0 109 -6 142 -24 124z"/>
<path d="M370 302 c0 -25 20 -42 50 -42 14 0 31 5 38 12 17 17 15 48 -3 48 -8
0 -15 -7 -15 -15 0 -8 -9 -15 -20 -15 -11 0 -20 7 -20 15 0 8 -7 15 -15 15 -8
0 -15 -8 -15 -18z"/>
<path d="M592 200 c4 -161 22 -163 26 -2 2 105 0 122 -13 122 -13 0 -15 -17
-13 -120z"/>
</g>
</svg>
